/* XPM */
static char *_545764142405[] = {
/* columns rows colors chars-per-pixel */
"64 64 233 2 ",
"   c #512900",
".  c #603D03",
"X  c #785307",
"o  c #7A5918",
"O  c #704804",
"+  c #775B22",
"@  c #845B09",
"#  c #835E15",
"$  c #8B660A",
"%  c #8B6B1C",
"&  c #896619",
"*  c #926D1D",
"=  c #946C13",
"-  c #99761C",
";  c #97730A",
":  c #A07D15",
">  c #896824",
",  c #916E25",
"<  c #8F7423",
"1  c #947323",
"2  c #9D7D23",
"3  c #9C7C2C",
"4  c #977628",
"5  c #997B32",
"6  c #8D7230",
"7  c #A17F2C",
"8  c #927D48",
"9  c #A98717",
"0  c #9E812B",
"q  c #9F8127",
"w  c #9C8338",
"e  c #A38324",
"r  c #AA8B25",
"t  c #A3832C",
"y  c #AA8C2D",
"u  c #A7882A",
"i  c #AE902B",
"p  c #B3962B",
"a  c #A38433",
"s  c #A48A35",
"d  c #AA8A34",
"f  c #A48A3B",
"g  c #AA8D3A",
"h  c #A48638",
"j  c #AD9132",
"k  c #AD933C",
"l  c #B59A36",
"z  c #B3953C",
"x  c #B59A3B",
"c  c #B99D3C",
"v  c #B69935",
"b  c #B08F38",
"n  c #BBA13D",
"m  c #C3A63D",
"M  c #988957",
"N  c #9B8A50",
"B  c #A78B45",
"V  c #AD9344",
"C  c #AD954B",
"Z  c #AD9746",
"A  c #B19343",
"S  c #B49B44",
"D  c #B99D44",
"F  c #B49B4B",
"G  c #B99D4C",
"H  c #B2944A",
"J  c #A68D51",
"K  c #A4945C",
"L  c #AB9656",
"P  c #B49D53",
"I  c #B59C58",
"U  c #BBA244",
"Y  c #BCA34B",
"T  c #BDA64B",
"R  c #B6A255",
"E  c #BCA454",
"W  c #B5A25C",
"Q  c #BBA55B",
"!  c #BDA95B",
"~  c #BFAA55",
"^  c #AD9D64",
"/  c #A89A66",
"(  c #B19F64",
")  c #A89E7E",
"_  c #ADA167",
"`  c #B4A364",
"'  c #BBA562",
"]  c #BDAA63",
"[  c #B4A56C",
"{  c #BAA66A",
"}  c #BBAB6C",
"|  c #B6A96A",
" . c #BDB16C",
".. c #BBAC73",
"X. c #BDAD7B",
"o. c #B5A978",
"O. c #BEB17C",
"+. c #BDB273",
"@. c #ABA178",
"#. c #9F9360",
"$. c #C2A643",
"%. c #C4AA43",
"&. c #C3AB4C",
"*. c #C5AA4B",
"=. c #C9B14C",
"-. c #C3AC54",
";. c #C3AD5B",
":. c #C4A954",
">. c #CBB354",
",. c #C6B15D",
"<. c #CAB45C",
"1. c #CEB95D",
"2. c #C9B356",
"3. c #D1BB5E",
"4. c #D6BC5A",
"5. c #C2AD63",
"6. c #C2AE6B",
"7. c #C6AC62",
"8. c #C6B264",
"9. c #CAB564",
"0. c #CDBA64",
"q. c #C5B36B",
"w. c #C9B56B",
"e. c #CDBA6C",
"r. c #D2BD63",
"t. c #D1BE6C",
"y. c #C3AE74",
"u. c #C4B473",
"i. c #C5B975",
"p. c #CDBC73",
"a. c #C2B37B",
"s. c #CBBC7B",
"d. c #C7B878",
"f. c #D1BE73",
"g. c #D0BE7A",
"h. c #D7C35B",
"j. c #D4C26D",
"k. c #DAC66A",
"l. c #CEC07A",
"z. c #D4C374",
"x. c #D9C773",
"c. c #DBCA73",
"v. c #D4C47B",
"b. c #DBCB7C",
"n. c #D7C87D",
"m. c #DFD07B",
"M. c #E3D37C",
"N. c #E6D476",
"B. c #E2CD6B",
"V. c #BDB387",
"C. c #B7AC83",
"Z. c #C3B584",
"A. c #CBBC83",
"S. c #CBBD8B",
"D. c #C3B989",
"F. c #CABE95",
"G. c #C9B781",
"H. c #CBBEA2",
"J. c #CEC186",
"K. c #D3C483",
"L. c #D6C985",
"P. c #DBCC84",
"I. c #D2C58B",
"U. c #D6C98B",
"Y. c #DBCD8B",
"T. c #DED185",
"R. c #DED18C",
"E. c #CEC299",
"W. c #D3C593",
"Q. c #D5CA94",
"!. c #DACD93",
"~. c #D6CA9A",
"^. c #DACE9B",
"/. c #D4C798",
"(. c #DED193",
"). c #DDD19B",
"_. c #E2D484",
"`. c #E2D58B",
"'. c #E5D98D",
"]. c #E9DC8C",
"[. c #E8D886",
"{. c #E2D593",
"}. c #E5DA92",
"|. c #E9DE94",
" X c #E2D59C",
".X c #E5DA9B",
"XX c #E9DD9C",
"oX c #E0CF81",
"OX c #ECE194",
"+X c #EDE39B",
"@X c #F1E69C",
"#X c #F4E99C",
"$X c #F3E795",
"%X c #EDE28D",
"&X c #CEC4A4",
"*X c #D5CBA2",
"=X c #D5CBA7",
"-X c #DCD2A5",
";X c #DDD3AC",
":X c #DDD4B4",
">X c #D7CEB7",
",X c #E2D6A3",
"<X c #E4DAA4",
"1X c #E9DEA2",
"2X c #E5DCAD",
"3X c #E9DFAB",
"4X c #E4DCB4",
"5X c #E5DBB6",
"6X c #EBE2A3",
"7X c #ECE4AC",
"8X c #F3EAA2",
"9X c #F4EBAC",
"0X c #F2E9A6",
"qX c #ECE3B4",
"wX c #EDE5BA",
"eX c #ECE5B6",
"rX c #F2EBB4",
"tX c #F2EBBD",
"yX c #F0E7B2",
"uX c #FCF4AE",
"iX c #E3DDC9",
"pX c #EBE3C3",
"aX c #EAE4C7",
"sX c #F3EDC4",
"dX c #F3EECB",
"fX c #F9F4C7",
"gX c #ECE6D6",
"hX c #F2EDDA",
"jX c #F9F6D8",
"kX c #F8F7E9",
"lX c #FDFCF5",
"zX c #F0EDE2",
"xX c None",
/* pixels */
"xXxXxXxXxXxXxXxXxXxXxXxXxXxXxXxXxXxXxXxXxXxXxXxXxXxXxX&X&X*X=X*X-X;X=X&X=X=XxXxXxXxXxXxXxXxXxXxXxXxXxXxXxXxXxXxXxXxXxXxXxXxXxXxX",
"xXxXxXxXxXxXxXxXxXxXxXxXxXxXxXxXxXxXxXxXxXxX&XE.&X-X^.Q.).).R.R.R.{.).!./.*X*X&X&X:XxXxXxXxXxXxXxXxXxXxXxXxXxXxXxXxXxXxXxXxXxXxX",
"xXxXxXxXxXxXxXxXxXxXxXxXxXxXxXxXxXxXxXxX&XE.W.J.n.j.p.P.P.}.P.R.R.L.R.].'.z.e.K.I.E.F.>XxXxXxXxXxXxXxXxXxXxXxXxXxXxXxXxXxXxXxXxX",
"xXxXxXxXxXxXxXxXxXxXxXxXxXxXxXxXxXxX&X^.J.! v..X8X/ u.uX_ _ U.K ../ o.O.[ [ K.6X].b.v.I.*X>XaXxXxXxXxXxXxXxXxXxXxXxXxXxXxXxXxXxX",
"xXxXxXxXxXxXxXxXxXxXxXxXxXxXxXxX=X!.i.0.K.+.^ XX$X_ / }...[ @XK l.+./ a.d./ [ } +.O.OXz.W a.&XiXxXxXxXxXxXxXxXxXxXxXxXxXxXxXxXxX",
"xXxXxXxXxXxXxXxXxXxXxXxXxXxX:X~.+.W i.a.o.).M K.@X'.p.P.#X8X6X!.uXQ.Z.#X#Xi.+._ | _ / U.K.L.b.A.>XgXxXxXxXxXxXxXxXxXxXxXxXxXxXxX",
"xXxXxXxXxXxXxXxXxXxXxXxXxX=Xu.f.i...#.o.{.$Xv.n.#XrX3X/.Z.C.X.a.+.X.Z.S./.6X9X}.l.].#.o.}.l.Y.T.e.F.hXxXxXxXxXxXxXxXxXxXxXxXxXxX",
"xXxXxXxXxXxXxXxXxXxXxX=X~.q.n.d.K U.J.} %X'.9XW.o./ L L F S D U U U x 4 J l.U.).6XuX'. .| / [ O.(.] S.gXaXxXxXxXxXxXxXxXxXxXxXxX",
"xXxXxXxXxXxXxXxXxXxX:XW.| i.L.}.} [ @X%X Xo.K J F =.k.%X#X8X0X@X%Xk.&.k.'.j.r.P.).S.!.0X[.} u.} [ ^.M.i.iXhXxXxXxXxXxXxXxXxXxXxX",
"xXxXxXxXxXxXxXxXxX~.I.l._ U._ [ 8X[.!.Z.K B &.[.8XrX7XtXyXyXyX0Xx.8.!.+XR.{.,X.Xp.j a.2X3X0X].| [ } d.P.q.iXaXxXxXxXxXxXxXxXxXxX",
"xXxXxXxXxXxXxXxX4XJ. .R./ } K.n.Y.S.y.G >.#XuXrXtXsXsXsXtXXXr.=.e.).6XqX<X<Xp.s.i.&.u.XXP./.qX$X}  ._ X.$X8.iXzXxXxXxXxXxXxXxXxX",
"xXxXxXxXxXxXxX:XJ.L +.I.J.J.].Y.Z.p.[.9X7X2XjXjXdXdXsXtX}.j.<.D !.7X).!.0.i.2.Y.pXr.*.yXY.S L 4X#Xi._ `.OXT.] gXhXxXxXxXxXxXxXxX",
"xXxXxXxXxXxXxXK.T.i.M O.!.OXs.W.@X8X!.7.*.H K.,XjXfX}.b.r.g.yX1X(.!.l.z.2.-XR.<.7Xb.D ^.6XD 9 ^.aX+XT.+XL.K n.d.zXxXxXxXxXxXxXxX",
"xXxXxXxXxXxX^.i.R.8Xu.[ ].s.-X}.Q , $ : r.[.:.X J }.OXx.`.7X`.A.i.9.(.yX2.v.rXT g.(.Y U.5X9.z.}.;.*X9X[.|. .O.m.A.kXxXxXxXxXxXxX",
"xXxXxXxXxX;Xs.] [ .X#XOXi.E.! * @ @ b r.g.fX[.=   X L 7XY.A.f.7.P.(.9.9.8.T 3X,.L.!.:.}.`.:.z.}.%.- H.0X[.#X+.} z.>XlXxXxXxXxXxX",
"xXxXxXxXxXJ.n. .i.}.OXf.F.U.@ X *.G f.*.d P.{.D = O X e.w.f.Y.x.n.9.x k 2 ] 7X,.Y.3.n 7XT.p f.dX'.9 s ;X}.OXU.K `.z.gXxXxXxXxXxX",
"xXxXxXxXQ.i.i.U.XX@Xf.G.tXw.J # , m.dXY.b ' zXk.- # A :.K.Y.Y.K.t.c {.c.e Z j.U 4Xb.c jXrXv v.lX6XS p p.4X_.|.L.+.z./.lXxXxXxXxX",
"xXxXxXxXR.s.K U.@XoXu.wXXX;.4.7 @ 4.[.XXyX<X[.*.7 A f.*.f.Y.1Xt.$. XdXn.1.$.n U pX`.n jXrXn z.jX|.l ~ [.pX.X].#XL ..p.aXzXxXxXxX",
"xXxXxXI.L.K.s.`.$Xu.S.@Xt.d B D A G K c +X7.5 G c 7.H 7 r.{.{.f.{.kXwXx.0.x.n.d Y.[.U hXeXU p.jX}.l -.+XeX<X{.OXJ.| m.!.kXxXxXxX",
"xXxXxXR.` ^ 6X@XP.d.r.m.H 4 8 >.4.G J H.N.Y.C.H =.:.7 - G Y.x.qXlXlX.X`.b.z.P.P.9.&.-.dX6Xc z.jX'.x -.6XwX{.2X_.+X}.OX0.iXxXxXxX",
"xXxXW.R.i.` '.@XA.I >.`.H 8 H I k.B.uX@X*.[.fXB.r.f.c b G k.`.dXjX,XP.L.v.t.v.T.T.S k rX6Xn l.fX{.x 2.6XkXb.(.6X_.}.}.b.-XlXxXxX",
"xXxXU.L.OXR.OXT.y.H 4.g.A Q G I 7 t.N.=.<.*.B.r.7 :.D 7 A `.7X1X7Xn.v.g.p.e.z.v.'.L.0 T.@XU l.jX|.S -.6XkXc.w.3X[.'.'.|.v.hXxXxX",
"xX-XR.T.}.}.OXL.( *.@Xy.7 7.7.:.@ , N.k.oX4.N.c = H 7 - , Y.sXsXqX0.9.9.t.1.2.r.0.P.p.T c.=.n.sX{.S -.6XsXc.j I.0X'.`.|.j.pXzXxX",
"xX-XP.OX'.'.[.D.{ x.oX7 7 :.' :.5 & >.N.7.4.>.* b :.7 4 * Q yXdXU.,.9.;.0.9.8.9.,.2.f.E k n T.tXR.U 2.6XjX`.9 L tXT.'.'.m.-XlXxX",
"xX).L.OX'.OXL.[ 9.'.w.a 8 I H ' f.7 - 4.*.m d @ 7 b 7 = 4 z  XpXf.;.<.,.2.e.9.<.-.>.U -.U s ,.9X'.U 0.yXrXh.9 # /.OX}.'.'.L.zXxX",
"xX(.P.}.}.OXL.} 0.}.0.B H G y.y.{ ' *.m $.m m G H b 7 7 * , qXXX1.S.A.!.v.,.&.0.A.J.K.K.!.;.y L.M.n 0.+XM.p t.} W.+X'.}.OXz.gXxX",
"*X{.T.'.}.}.L.6.v.tXt.4 > I t.9.f.XXN.*.*.m B.1XK.K.4.:.{  XqXx.9.Z.X.! P B >.e.S.+.{ u...< s 1.,.p >.N.%.;.sX'.).<X`.'.|.z.5XzX",
"^.{.`.'.'.`.A.w.(.tXn.e b w.H 7.Y. X4.m :.$.:.1X XY.Y.:.:.qX3XB.p.V S w U P ! 8.Z s g ~ V w ~ j.s.Z v h.f.2X X0.W.qXT.'.}.z.5XzX",
"^.(.'.'.}.T.u.K.7X,Xt.=.4.7.7.f.f.!.B.m 4.c *. XY.K.K.7.9 4.,Xx.!.(.T.).(.m.J.!.n.m.!.).`.'.9.T p.L.C ~ {.{.P.8.A.7X_.'.'.b.-XzX",
").(.}.'.}.n.u.1X3XY.z.B & A 7.7.7. Xf.z 4.$.7. Xt.t.7.7.7 b oXoXl._ ] .._ R q.[ ^ ..{ { ..L w 9.w.e.K.P 5.P.K.;.J.<XT.}.}._.-XgX",
").R.}.'.OXv.d.7X<X.X8.4 4 7.H L I oXH 4 k.7.f.K.7.7.I I H 7 t. Xn.! Q ~ Y ! 0.Z Q Q E R P w s Y k F q.p.R E s.;.i. XT.'.'.[.Q.hX",
".XR.'.}.OXl.a..X<XR.z 4 5 I F G H 7.4.H B.oXx.7.{ 7.H ' G b 7.oX{.'.`.T._.P.z.c.m.M.z.p.-.1.q.L.S F 5 5.f.Q 8.8.6.^.R.'.}.`.W.gX",
"{.).'.'.OXv.y.}. X.X:., 4 A b 5 7 D E B = d <.<.7.:.:.I a g <X!.9.Y.n.v.n.n.z.t.z.j.t.c ! 6XyXK.,._.0 w e.q.! F 5.)._.}.'.`.J.gX",
"(.{.'.}.|.z.X.U.Y.,Xf.& , 7 B 5 H G - @ # = u ,.H g :.G 7 d .X.Xe.w.v.P.L.v.n.n.n.z.1.$.dXdX(.;.E ~ 2.- !  .w.R ` ).T.}.'.].I.gX",
"(.{.'.`.}.P.y.K.P.).Y.> # 7 , 6 7 D 5 o # > 7 :.H , o g d B L.L.Y.;.Y ;.g.g.n.n.v.e.&.4X<Xv.w.E 5.T M.t B j.8.! 6.)._.}.}.].Q.aX",
"!.{.'.}.'.T.a.s.g.(.!.G O * , o # 5 H H I ( I 4 > > h d # I ).n.0.0.v.] I P.K.v.n.z.V P ;.:.l s.Q.x r.0 5 w.8.Y u. X`.'.}.m.*XaX",
"^.{.R.].'.}.s.} t.Y.K.Y.4 o 1 7 5 # , 4 5 g 4 > 5 Q b & 3 z.b.%.g.Y.`.*Xt g.v.v.g.e.D F 9.0.2.dXQ I.b.; % Z 9.k +.).OXOX .9.2XaX",
"~.(.R.OX}.@Xs.{ f.Y.L.Y.f.3 X o , , 7 o O * , 4 6 > O 7 9.v.j.qXpXv.1XL 1 t.e.v.p.p.D F ;.k.Y.W.6.jXk.n - % Z Z i.(.OXR.q.w.qXiX",
"xX(.R.l.P.#Xg.( e.v.R.P.}.g.E 7 # > # > & , # 1 7 d A.w.e.9.s.5X<.6.e.x S ;.5.g.z.e.y Q s.m jXF.).[.1.1.p r = w J.T.$XL.q.n.:XxX",
"xXR.|. .g.@XP...6.e.oXL.g.Y.}.oXf.;.:.,.:.9.:.S.wXg.,X:.-.z.R F 9.:.z.tX,.2 ,.;.e.0.l g.Q 0.K.K.tXr.n U l e X 5 ).T.+X] e.).4XxX",
"xXU.+Xe.! +X+Xu.^ ,.n.n.K.v.n.U.R.k.b.b.`.b. XA.e.,.,.c.U T ~ ! M.k.4XlXm.r e Z S T j f ;.n u.sXM.-.2 i l Y o K }.OX+XR 9.-XwXxX",
"xXI.}.b.E R.#Xl.[ 8.t.s.K.n.t.0.x.oXP./.y.G I d 1.c.2XlXx.p P 8.x.p.aXtXp U &.U x x t a.~ ~ lX+X=.q - r < + + | T.+XR.+Xv.-XeXxX",
"xXxXR.7XP ] @X}...{ ;.n.r.3.P.f.w.A.Q 5.x 8.L.;.,.j.hXjX=.%.! ~ r.!.sX*.9 T k.j.1.$.! L.0 :XfXn r $ % q %   N Y.'.'.).z.q.5XxXxX",
"xXxXP.{.T.R.OX@Xz.` z.N.n.g.A.d.w.:.A.5.%.rX!.g 9.T.jXT r n &.R i.dX`.r i k.>.:.j.n.2.-.d.tX>.9 e i r w * & O.L.+X'.!.F W.eXxXxX",
"xXxXxXP.).!.e.+XOX|  .-.{ 5.:.s.-.z.<X:.v.rXj z -.jXfX9 u c j ] wXXX=.v U T $ 0 z.S a V ).Y.; - s y e < X J I.].'.}.i.! <XxXxXxX",
"xXxXxXP.(.! p.OX#Xl./ 8.,.E z.q.U Y.9.-.P.G d g.<XkX=.$ F E 8.L.j.>.U A P C f [ ,.e S x n l s s 0 < o   6 G.b.+X'. X5.J.2XxXxXxX",
"xXxXxXJ.T.v.l.e.OX#X' X.e.A 5.0 ] w.U k w Q :.e.L.Y & B T d 9.0.e.F ! P.T._.M.[.T U ! ~ U k U B & w % X o.l.OX'.+Xs.P 2X^.xXxXxX",
"xXxXxXxXn.R.S ! R.+X}.K [ -.Y L Z t % L e.-.r @ $ ~ w.p.l >.r.j.>.s 5.'.b.z.0.,.S S Z V w f w 0 % X . / s.'.}.OX!.Q Q.,XxXxXxXxX",
"xXxXxXxXxXT.v.f.f.}.8XP.K u.V S j 1 w z.1.i e > B b.c.&.U 2.1.&.w R ,.~ Y Y Z f s y q 0 q q q q % X L O.T.+X`.).! W 7XxXxXxXxXxX",
"xXxXxXxXxXv..Xs.P.R.}.8Xn.M L l U 5 V =.j p j S ,.=.&.l U %.n n - < x y u r e e u e y d e - q - $ W o.n.@X`..XJ.Z 2X^.xXxXxXxXxX",
"xXxXxXxXxXxXz.XXi.Y b.+X#Xv.N ..,.0 w t.9.8.0.k S h.1.:.,.1.2.2.=.k R 9.8.-.,.-.E U T U n U y e O.o.l.#X`.OX^.F Q.).xXxXxXxXxXxX",
"xXxXxXxXxXxXxXx.Y.j.;.8.OX8XP.M W - k P.z.t.2.z q.L.p.p.9.z.t.e.<.w ' k.w.9.,.-.! Y S x S e x V.@.L.#XR.1X).Z i.7XxXxXxXxXxXxXxX",
"xXxXxXxXxXxXxX..[..XR e.|.}.#X`./ 8 ;.N.j.<.U n Y.6XR.L.k.z.z.j.n k z.x.r.0.0.1.2.U F a r Q C.o.T.#XR.(.J.Z  .qXD.xXxXxXxXxXxXxX",
"xXxXxXxXxXxXxXxX' oX XXX~.L.}.@XOX+.K W k.l r j U.(.6X{.j.c.,.T u d z.k.0.0.1.2.,.j i -.} C.o.c.#XR.+X+XT ] tXG.xXxXxXxXxXxXxXxX",
"xXxXxXxXxXxXxXxXxXf OXL.5.K.`.|.+X#XJ./ K L &.z ;.e.z.g.~ -.k t a s q.z.3.2.&.n U ;.] C.V.J.l.e.%X+XJ.] J.sX/ xXxXxXxXxXxXxXxXxX",
"xXxXxXxXxXxXxXxXxXxXI _.L.5.,.z.n.'.Y.R.O.o._ K } b.k.2.$.n >.2.>.U ;.1.3.0.q.} } V.E.i.l.i.z.+X6XI.P +.wXO.xXxXxXxXxXxXxXxXxXxX",
"xXxXxXxXxXxXxXxXxXxXxX` _.}.Q F L.1X`.n.n.P. . .o._ _ } q.Y ~ ] Q ' J.d.O.o.C.J.V.} e.z.p.'.8X(.q.P !.wXo.xXxXxXxXxXxXxXxXxXxXxX",
"xXxXxXxXxXxXxXxXxXxXxXxXxXe.+Xs.e.A.{.XXx.x.w.8.l.| O.V.V.D.V.O.D.V.V.F.V...| J.T.p.p.`.0X(.J.! ] qX-XxXxXxXxXxXxXxXxXxXxXxXxXxX",
"xXxXxXxXxXxXxXxXxXxXxXxXxXxX] ].Y.p.R ;.XX2X{.T.n.v.n.s.l.i.} ] ] +.l.q.z.l.s.v.R.+X7X).L.] ! <XwXD.xXxXxXxXxXxXxXxXxXxXxXxXxXxX",
"xXxXxXxXxXxXxXxXxXxXxXxXxXxXxXxXf.+XL.v.g.6.Y.XX6X0XR.j.n.9.j.l.j.l.z.z.T.+X8X}.J.K.p.W C -X4X*XxXxXxXxXxXxXxXxXxXxXxXxXxXxXxXxX",
"xXxXxXxXxXxXxXxXxXxXxXxXxXxXxXxXxXL z.|.(.v.] W s.w.v.l.n.6X6X+X+X.X.X{.U.K.8.n.! w.i.^.;X;XV.xXxXxXxXxXxXxXxXxXxXxXxXxXxXxXxXxX",
"xXxXxXxXxXxXxXxXxXxXxXxXxXxXxXxXxXxXxXxXl.|.Y.n.P. .q.P q.u.} ] i.i.! i. .W ] !.<X<X<X^.xXxXxXxXxXxXxXxXxXxXxXxXxXxXxXxXxXxXxXxX",
"xXxXxXxXxXxXxXxXxXxXxXxXxXxXxXxXxXxXxXxXxXxXu.L.Y.OX{.+X6X(.U.K.U.U.!.).R..X6X!.Q.a.xXxXxXxXxXxXxXxXxXxXxXxXxXxXxXxXxXxXxXxXxXxX",
"xXxXxXxXxXxXxXxXxXxXxXxXxXxXxXxXxXxXxXxXxXxXxXxXxXxXa.J.K.L.Y.R.Y.Y.K.U.J.d.xXxXxXxXxXxXxXxXxXxXxXxXxXxXxXxXxXxXxXxXxXxXxXxXxXxX"
};
