/* XPM */
static char *_545763959336[] = {
/* columns rows colors chars-per-pixel */
"16 16 207 2 ",
"   c #755101",
".  c #876012",
"X  c #906D1F",
"o  c #9E791A",
"O  c #947520",
"+  c #9B7625",
"@  c #97782A",
"#  c #977B2F",
"$  c #9A7B32",
"%  c #A07F32",
"&  c #A08227",
"*  c #A48526",
"=  c #A58429",
"-  c #A4862A",
";  c #AA8C2A",
":  c #A78C38",
">  c #B89D3F",
",  c #A88C42",
"<  c #AC8D40",
"1  c #B39645",
"2  c #B6994B",
"3  c #B39B4C",
"4  c #B79A51",
"5  c #B59D52",
"6  c #B59C54",
"7  c #BEA648",
"8  c #BAA34D",
"9  c #BDA14F",
"0  c #BCA54F",
"q  c #BDA64E",
"w  c #BEA64F",
"e  c #BAA350",
"r  c #BDA752",
"t  c #BAA354",
"y  c #BBA654",
"u  c #BAA557",
"i  c #BCA554",
"p  c #BCA555",
"a  c #BDA754",
"s  c #BEA754",
"d  c #BBA15D",
"f  c #BEA959",
"g  c #BDA95C",
"h  c #BDAA5F",
"j  c #BEAA61",
"k  c #BEA967",
"l  c #BFAE65",
"z  c #CBAE4D",
"x  c #C2AB57",
"c  c #C4AE56",
"v  c #C0AB5D",
"b  c #C3AA5D",
"n  c #C6B053",
"m  c #C7B15A",
"M  c #C9B15E",
"N  c #C8B45D",
"B  c #C9B45E",
"V  c #CFB55E",
"C  c #C0A961",
"Z  c #C3AE60",
"A  c #C6AF61",
"S  c #C3AE66",
"D  c #C1AF69",
"F  c #C0AF6A",
"G  c #C2AE6A",
"H  c #C7B363",
"J  c #C6B267",
"K  c #CDB360",
"L  c #C8B462",
"P  c #CBB867",
"I  c #C6B56A",
"U  c #C0B06E",
"Y  c #C4B46F",
"T  c #CAB36C",
"R  c #CDBA6F",
"E  c #D3BC61",
"W  c #D1BD66",
"Q  c #D5BD68",
"!  c #C1B273",
"~  c #C4B271",
"^  c #C6B673",
"/  c #C5B275",
"(  c #C9B772",
")  c #CBBB73",
"_  c #CCB870",
"`  c #CEBB70",
"'  c #CABB74",
"]  c #CBBB75",
"[  c #CBBB77",
"{  c #CBBC77",
"}  c #CDBD74",
"|  c #CCBD76",
" . c #C4B67E",
".. c #C7B97D",
"X. c #CBBC7A",
"o. c #D1BE76",
"O. c #D2BE77",
"+. c #D5C26A",
"@. c #CFC17B",
"#. c #CFC37E",
"$. c #D3C173",
"%. c #D1C076",
"&. c #D0C077",
"*. c #D2C077",
"=. c #D2C376",
"-. c #D2C277",
";. c #D4C275",
":. c #D4C375",
">. c #D6C677",
",. c #D1C178",
"<. c #D0C17B",
"1. c #D6C17B",
"2. c #D5C37B",
"3. c #D5C47A",
"4. c #D4C47B",
"5. c #D5C77B",
"6. c #D6C67A",
"7. c #D1C27C",
"8. c #D1C27D",
"9. c #D0C37D",
"0. c #D2C27C",
"q. c #D2C37C",
"w. c #D2C17E",
"e. c #D1C27F",
"r. c #D4C37C",
"t. c #D3C47C",
"y. c #D6C67C",
"u. c #D6C67D",
"i. c #D9C97C",
"p. c #D8C87D",
"a. c #D9C97E",
"s. c #E0D17E",
"d. c #C2B684",
"f. c #C7BB84",
"g. c #C4BA86",
"h. c #C9BC80",
"j. c #C6BB89",
"k. c #C7BD8E",
"l. c #D1BF84",
"z. c #CDC185",
"x. c #CDC18C",
"c. c #D1C382",
"v. c #D2C481",
"b. c #D2C582",
"n. c #D6C580",
"m. c #D7C781",
"M. c #D6C685",
"N. c #D7C884",
"B. c #D6C985",
"V. c #D7CB84",
"C. c #D8C983",
"Z. c #DDCE80",
"A. c #DDCE82",
"S. c #DCCE83",
"D. c #D8C986",
"F. c #D8CB86",
"G. c #DBCC85",
"H. c #DECF85",
"J. c #D2C68D",
"K. c #D1C58F",
"L. c #D2C68E",
"P. c #D2C78F",
"I. c #D8CA8A",
"U. c #DACC88",
"Y. c #DDCE8B",
"T. c #DACE8E",
"R. c #DCCF8D",
"E. c #DED089",
"W. c #DFD08C",
"Q. c #DED08D",
"!. c #CBC192",
"~. c #CFC593",
"^. c #D2C892",
"/. c #D6C996",
"(. c #D2C89D",
"). c #DDD090",
"_. c #DED290",
"`. c #DCD298",
"'. c #E3D381",
"]. c #E0D185",
"[. c #E1D485",
"{. c #E5D586",
"}. c #E1D389",
"|. c #E0D48C",
" X c #E3D68D",
".X c #E3D78E",
"XX c #E0D495",
"oX c #E3D694",
"OX c #E1D796",
"+X c #E4D891",
"@X c #E6D990",
"#X c #E7DB94",
"$X c #E5DA96",
"%X c #E8DC92",
"&X c #E6DC9C",
"*X c #EBE098",
"=X c #D2C9A4",
"-X c #D7CFA4",
";X c #DAD1A6",
":X c #DCD6BD",
">X c #E5DCA8",
",X c #E0D8B2",
"<X c #E9E0A5",
"1X c #E9E0A6",
"2X c #EDE4AD",
"3X c #F3EDB8",
"4X c None",
/* pixels */
"4X4X4X4X4Xj.^.J.J.x.!.4X4X4X4X4X",
"4X4X4Xk.X.9.,.] l 9.b.z.=X4X4X4X",
"4X4Xg.#.4.I.3X}.p.Y.D.] | ;X4X4X",
"4X-XV.~ 9 T / Y._ R 3.3.4.=.:X4X",
"4X9.@X1 b O.= D._.B y.Q.m.|.T.4X",
"^.[.S : M E o l.2XW B ;.oXG.s.,X",
"OX+XS d V z 4 _ | f j i +.,.A.>X",
"+X&XG 2 V Q 1.A 9.I Y j e ( S.1X",
"#X$Xk . X % + C G.y.:.o.t 3 i.1X",
"XX4.9.6 @ $ , _ 9.J e M.$.& 4.`.",
"J.:.| ].i.=.E.L 3.7 s m.* #  X^.",
"4Xa.O.5 p v e x L w s =   [ +X4X",
"4X/.{.J : 1 n n 8 m ; X U %X(.4X",
"4X4XX.{.9.f =.x r P f 9.*X .4X4X",
"4X4X4X! S.D.[ G ^ 9.Q.Q.d.4X4X4X",
"4X4X4X4X4X..c.V.V.b.g.4X4X4X4X4X"
};
