/* XPM */
static char *_545763984996[] = {
/* columns rows colors chars-per-pixel */
"32 32 193 2 ",
"   c #633700",
".  c #7C5B0C",
"X  c #78540B",
"o  c #7F5910",
"O  c #75571B",
"+  c #80590B",
"@  c #9D7A0C",
"#  c #84621D",
"$  c #8A6519",
"%  c #8B6716",
"&  c #916D1F",
"*  c #96751F",
"=  c #97781C",
"-  c #9D7C1C",
";  c #977515",
":  c #8E6F24",
">  c #906D26",
",  c #947121",
"<  c #9B7622",
"1  c #94742B",
"2  c #9B7827",
"3  c #987B38",
"4  c #A07D2B",
"5  c #917A40",
"6  c #A6851E",
"7  c #9F8027",
"8  c #9E8134",
"9  c #A2852A",
"0  c #A68A2F",
"q  c #A98A29",
"w  c #BA9A2C",
"e  c #A18234",
"r  c #A78A34",
"t  c #A78A3B",
"y  c #AB8D3C",
"u  c #A58837",
"i  c #AD923C",
"p  c #AD9237",
"a  c #B19030",
"s  c #B1943F",
"d  c #B49A3A",
"f  c #B99C3B",
"g  c #BAA03C",
"h  c #C1A33B",
"j  c #A58747",
"k  c #A98C41",
"l  c #A68A41",
"z  c #AD9242",
"x  c #AD964C",
"c  c #B29644",
"v  c #B49A43",
"b  c #B0944A",
"n  c #B49C4B",
"m  c #B89944",
"M  c #B69C53",
"N  c #B09D5E",
"B  c #BA9F56",
"V  c #BEA544",
"C  c #BCA34C",
"Z  c #BCA453",
"A  c #B7A35A",
"S  c #BCA55B",
"D  c #BEA95D",
"F  c #BCA857",
"G  c #B6A663",
"H  c #BAA662",
"J  c #BBA963",
"K  c #B5A56A",
"L  c #BCAD6B",
"P  c #BFB06A",
"I  c #BDAD73",
"U  c #B5A979",
"Y  c #BEB173",
"T  c #C0A443",
"R  c #CDAF47",
"E  c #C0A248",
"W  c #C3AB4D",
"Q  c #C3AA47",
"!  c #C7B04A",
"~  c #C0A654",
"^  c #C3AC54",
"/  c #C2AB5B",
"(  c #C9AF5D",
")  c #CDB554",
"_  c #C7B15A",
"`  c #CAB35C",
"'  c #CAB557",
"]  c #D3BC5E",
"[  c #C1AE64",
"{  c #C8AF66",
"}  c #C2AE6E",
"|  c #C6B263",
" . c #CAB663",
".. c #CFB962",
"X. c #C4B36C",
"o. c #C9B66B",
"O. c #CDBA6A",
"+. c #D1BD6B",
"@. c #D0BB65",
"#. c #C5B573",
"$. c #C9B674",
"%. c #C7B971",
"&. c #CCBB73",
"*. c #C3B57B",
"=. c #C5B97B",
"-. c #CCBD7B",
";. c #D0BE74",
":. c #D0BE7A",
">. c #D4C165",
",. c #D4C26C",
"<. c #D8C66C",
"1. c #CFC07B",
"2. c #CEC274",
"3. c #D3C274",
"4. c #DAC973",
"5. c #D4C47C",
"6. c #D9C77E",
"7. c #D6C97D",
"8. c #DAC97C",
"9. c #E0CA6A",
"0. c #E1CD7A",
"q. c #E1D17D",
"w. c #C2B687",
"e. c #CBBD84",
"r. c #CABE89",
"t. c #C6BB86",
"y. c #D2BF80",
"u. c #CABF92",
"i. c #CDC181",
"p. c #CEC288",
"a. c #D4C583",
"s. c #D7C984",
"d. c #DACC84",
"f. c #D2C58B",
"g. c #D6C989",
"h. c #DBCC8B",
"j. c #DFD183",
"k. c #DED18B",
"l. c #CFC291",
"z. c #CEC59C",
"x. c #D1C694",
"c. c #D5CA94",
"v. c #DACD92",
"b. c #D4CA9A",
"n. c #DACE9B",
"m. c #D1C79B",
"M. c #DDD193",
"N. c #DED29A",
"B. c #E0CE82",
"V. c #E1D386",
"C. c #E2D48B",
"Z. c #E6DA8D",
"A. c #E8DC8F",
"S. c #E5D881",
"D. c #E3D694",
"F. c #E5DA92",
"G. c #E9DE94",
"H. c #E2D59B",
"J. c #E6DA9B",
"K. c #E9DE9C",
"L. c #EBE08F",
"P. c #EBE195",
"I. c #ECE29C",
"U. c #F0E69D",
"Y. c #F3E999",
"T. c #CFC6A4",
"R. c #D7CEA2",
"E. c #DFD3A3",
"W. c #DDD5AD",
"Q. c #DED7BD",
"!. c #DFD8B9",
"~. c #E5DBA2",
"^. c #E8DDA5",
"/. c #E4DBAD",
"(. c #E2D6A9",
"). c #E1D7B6",
"_. c #E4DBB3",
"`. c #EAE0A4",
"'. c #ECE2AD",
"]. c #F0E7A1",
"[. c #F3EBA2",
"{. c #F9F1A5",
"}. c #EFE7BB",
"|. c #F0E9B2",
" X c #E3DEC9",
".X c #ECE5C4",
"XX c #F2EBC1",
"oX c #F9F5CB",
"OX c #FEFAC6",
"+X c #ECE8D9",
"@X c #F8F4DB",
"#X c #FFFFEE",
"$X c None",
/* pixels */
"$X$X$X$X$X$X$X$X$X$X$X$Xu.x.n.N.H.N.x.z.$X$X$X$X$X$X$X$X$X$X$X$X",
"$X$X$X$X$X$X$X$X$Xz.r.D.a.=.1.%.P =.=.a.M.n.T.$X$X$X$X$X$X$X$X$X",
"$X$X$X$X$X$X$Xz.e.#.#.d.F.f.v.e.U p.f.Y L X.d.(.Q.$X$X$X$X$X$X$X",
"$X$X$X$X$X$Xb.-.G *.D.-.-.&.&.-.o.D 5.M.v.e.X.J g.).$X$X$X$X$X$X",
"$X$X$X$X$Xe.L -.g.a.} X.:.C.K.Z.>.O.d.h.:.h.N.=.G -.W.$X$X$X$X$X",
"$X$X$X$Xe.L -.g.K.d.;.OX#XoXJ.+.h.^.M.g. .5.v.s.p.%.8.!.$X$X$X$X",
"$X$X$Xc.%.*.M.v.B n B.} u.G.B.s.g.7.5.g.5.s.O.( H.I.2.#..X$X$X$X",
"$X$XW.P k.P.f.8 , m B.~   B D.a.O.C D 7.O.s.;.V./ $.I.o.f.+X$X$X",
"$X$Xi.&.Z.J.a.% b D.y.;.& y B.6.3.3.g | 3.H.s.~.5.Z '.k.D W.$X$X",
"$Xx.P k.d.s.B y E :.H.~ ) m { D.@X'.,.3.` H.s.k.3.3.}.G.7.k..X$X",
"$Xh.s.F.[ ( M B ..q.0.0.E 4 ~ oX.X7.3.8. .2.4.N.3.a.'.k.U.q.).$X",
"$XC.Y.a.o.~ k b , ( 9.a < 4 m oX7.W  . .O.^ V `.3.g.J.m N.S.^.$X",
"m.Z.P.&.5.S j } M E R a y 4 k H.5.$.` ` &.o.c ,.>.d.4.c M.P.F. X",
"c.A.F.-.J./ c ;.D.] w 0.n.~ :.D.X.L F | X.#.A Z ^ Q 8.H.M.G.j.!.",
"M.A.j.g.'./ s { B.( h 6.H.( E C.&.G L X.J X.J n o./ s.5.a.K.j._.",
"F.F.s.c.~.e 3 m H ( ..;.{ ~ 4 y.d.&.o. .o.J n / F H [ F i.K.q._.",
"D.F.d.e.K.t , u m 4 , ~ ~ z x a.s.8.k.8.4.@.`.h.W z J Z &.I.j./.",
"k.G.C.$.J.H X > 4 1 3 t 3 & k j.O.| ;.g.O.X.a.| O.p x o.-.P.j.E.",
"v.G.Z.$.5.v.l + + > 1 # % 2 D C.D.J n h.&.c W a.(.^ = c a.F.1.W.",
"n.6.C.-.X.C.h./ k e t B H ~  .1.:.:.Z F | C | E.J.) 6 : k.d.1.W.",
"$X3.3.h.A 3.d.C.V.d.3.;.7.`.| m 3.XX^ d d c X.|.W - % 5 `.q.h.$X",
"$Xh.7.G.X.O.;.&.-.X.;./ 7.}.g f /.;.w ) ^ F N.,.@ = X K [.5.c.$X",
"$Xc.8.C.h.H [ / ;.+.[ | '.M 6 o.k.V n F ~ C  .9 9 . 3 I.F.&.b.$X",
"$X$X;.o.P.*.S n i n Z p A n C ,.C  .s.O.v i 0 8 . O i.{.-.i.$X$X",
"$X$Xn.O.d.P.K x 7 k W = v ] Q V u C V p 0 0 9 ; # I {.h.o.R.$X$X",
"$X$X$Xg.+.8.F.L 8 C >.^  . . ...z C _ Z C d a y *.].C.X.l.$X$X$X",
"$X$X$X$X5.5.G.].L J _ f h.F.4.^ i 2.<.] V i N w.U.F.%.p.$X$X$X$X",
"$X$X$X$X$XO.5.8.U.e.N n X.3.^ f d O.@.F H Y e.C.k.1.e.$X$X$X$X$X",
"$X$X$X$X$X$X&.O.s.C.d.=.I P L L I *.I *.p.h.V.s.a.l.$X$X$X$X$X$X",
"$X$X$X$X$X$X$XY 3.8.h.s.k.5.-.i.a.i.a.d.d.d.g.f.w.$X$X$X$X$X$X$X",
"$X$X$X$X$X$X$X$X$XY 5.s.d.7.s.g.s.g.d.d.h.e.w.$X$X$X$X$X$X$X$X$X",
"$X$X$X$X$X$X$X$X$X$X$X$X=.-.i.1.5.1.-.t.$X$X$X$X$X$X$X$X$X$X$X$X"
};
